0
SECTION
2
HEADER
9
$INSUNITS
70
4
9
$ACADVER
1
AC1014
9
$HANDSEED
5
FFFF
0
ENDSEC
0
SECTION
2
TABLES
0
TABLE
2
VPORT
5
8
100
AcDbSymbolTable
0
ENDTAB
0
TABLE
2
LTYPE
5
5
100
AcDbSymbolTable
0
LTYPE
5
14
100
AcDbSymbolTableRecord
100
AcDbLinetypeTableRecord
2
BYBLOCK
70
0
0
LTYPE
5
15
100
AcDbSymbolTableRecord
100
AcDbLinetypeTableRecord
2
BYLAYER
70
0
0
ENDTAB
0
TABLE
2
LAYER
5
2
100
AcDbSymbolTable
70
2
0
LAYER
5
50
100
AcDbSymbolTableRecord
100
AcDbLayerTableRecord
2
0
70
0
6
CONTINUOUS
0
ENDTAB
0
TABLE
2
STYLE
5
3
100
AcDbSymbolTable
70
1
0
STYLE
5
11
100
AcDbSymbolTableRecord
100
AcDbTextStyleTableRecord
2
STANDARD
70
0
0
ENDTAB
0
TABLE
2
VIEW
5
6
100
AcDbSymbolTable
70
0
0
ENDTAB
0
TABLE
2
UCS
5
7
100
AcDbSymbolTable
70
0
0
ENDTAB
0
TABLE
2
APPID
5
9
100
AcDbSymbolTable
70
2
0
APPID
5
12
100
AcDbSymbolTableRecord
100
AcDbRegAppTableRecord
2
ACAD
70
0
0
ENDTAB
0
TABLE
2
DIMSTYLE
5
A
100
AcDbSymbolTable
70
1
0
ENDTAB
0
TABLE
2
BLOCK_RECORD
5
1
100
AcDbSymbolTable
70
1
0
BLOCK_RECORD
5
1F
100
AcDbSymbolTableRecord
100
AcDbBlockTableRecord
2
*MODEL_SPACE
0
BLOCK_RECORD
5
1B
100
AcDbSymbolTableRecord
100
AcDbBlockTableRecord
2
*PAPER_SPACE
0
ENDTAB
0
ENDSEC
0
SECTION
2
BLOCKS
0
BLOCK
5
20
100
AcDbEntity
100
AcDbBlockBegin
2
*MODEL_SPACE
0
ENDBLK
5
21
100
AcDbEntity
100
AcDbBlockEnd
0
BLOCK
5
1C
100
AcDbEntity
100
AcDbBlockBegin
2
*PAPER_SPACE
0
ENDBLK
5
1D
100
AcDbEntity
100
AcDbBlockEnd
0
ENDSEC
0
SECTION
2
ENTITIES
0
LWPOLYLINE
5
100
100
AcDbEntity
8
0
100
AcDbPolyline
90
39
70
1
43
0.0
10
209.93727726165872
20
118.3749976098878
42
-0.4142135623731279
10
210.21356589223416
20
119.02589283387914
10
220.87618021975226
20
123.33386865816216
42
-0.53170943166147311
10
225
20
120.55231709446176
10
225
20
0
10
183.67500000000001
20
4.649058915617843e-15
42
-0.41421356237304546
10
183.17499999999998
20
0.49999999999999822
10
183.17499999999998
20
15.000000000000036
10
176.82500000000002
20
15.000000000000036
10
176.82500000000002
20
0.49999999999999833
42
-0.41421356237304546
10
176.32499999999999
20
0
10
48.67499999999999
20
2.2898349882893854e-15
42
-0.4142135623730937
10
48.17499999999999
20
0.49999999999999822
10
48.17499999999999
20
15.000000000000036
10
41.82500000000001
20
15.000000000000036
10
41.82500000000001
20
0.49999999999999833
42
-0.4142135623730937
10
41.32500000000001
20
4.5277329039247673e-32
10
0
20
0
10
-1.2212453270876722e-14
20
52.976474449472725
42
-0.30573068145865956
10
1.876180219752257
20
55.75802601317308
10
11.218448436299632
20
59.532547381444459
42
-0.41421356237309737
10
15.123819780247736
20
57.874815597991834
10
20.137409715589165
20
45.465745060608143
42
0.37282469327269785
10
23.633889889012345
20
43.675997082419542
42
-0.37282469327270751
10
24.216636584582876
20
43.37770575272144
10
26.421532927728325
20
37.920395800656443
10
54.237048564731964
20
49.158593603133802
10
52.045599993248842
20
54.582619152349501
42
-0.41421356237306511
10
52.321888623824258
20
55.233514376340835
10
74.574301133427227
20
64.224072618322779
42
-0.4142135623730806
10
75.225196357418554
20
63.947783987747322
10
77.416644928901633
20
58.523758438531608
10
161.13361383196849
20
92.347609422796936
10
158.94216526048541
20
97.771634972012606
42
-0.41421356237313178
10
159.2184538910609
20
98.422530196003976
10
181.47086640066374
20
107.41308843798592
42
-0.41421356237313178
10
182.12176162465511
20
107.13679980741045
10
184.31321019613819
20
101.71277425819476
10
212.1287258331418
20
112.95097206067213
0
ENDSEC
0
SECTION
2
OBJECTS
0
DICTIONARY
5
C
100
AcDbDictionary
3
ACAD_GROUP
350
D
3
ACAD_MLINESTYLE
350
17
0
DICTIONARY
5
D
100
AcDbDictionary
0
DICTIONARY
5
1A
330
C
100
AcDbDictionary
0
DICTIONARY
5
17
100
AcDbDictionary
0
ENDSEC
0
EOF
